<svg xmlns="http://www.w3.org/2000/svg" viewBox="0 0 512.001 512.001" style="enable-background:new 0 0 512.001 512.001" xml:space="preserve"><path fill="#F5F5F5" d="M471.652 248.164c-4.403-112.463-95.26-203.09-207.814-207.129V.001h-15.674v41.034C135.608 45.073 44.753 135.701 40.348 248.164H0v15.674h40.294c3.689 113.123 94.838 204.5 207.87 208.556V512h15.674v-39.606c113.031-4.056 204.181-95.433 207.871-208.556h40.293v-15.674h-40.35zM263.837 456.709V416h-15.674v40.709c-104.387-4.041-188.512-88.393-192.186-192.872H96v-15.674H56.032c4.387-103.819 88.22-187.423 192.131-191.446V96h15.674V56.718c103.911 4.023 187.746 87.626 192.131 191.446H416v15.674h40.022c-3.674 104.478-87.798 188.831-192.185 192.871z"/><path fill="#F5F5F5" d="M248 248.878h16.001v15.674H248zM279.995 248.878h16v15.674h-16zM216.004 248.878h16.001v15.674h-16.001z"/></svg>