<svg xmlns="http://www.w3.org/2000/svg" viewBox="0 0 488.802 488.802" style="enable-background:new 0 0 488.802 488.802" xml:space="preserve"><path style="fill:#f5f5f5" d="M407.157 244.4c7.775-8.42 14.86-16.877 21.163-25.301 30.884-41.281 39.655-77.513 24.697-102.021s-51.193-33.274-102.025-24.68c-7.847 1.327-15.919 3.047-24.164 5.129-2.517-8.123-5.254-15.909-8.21-23.298C299.471 26.362 273.113 0 244.4 0c-28.712 0-55.07 26.362-74.217 74.23-2.956 7.39-5.693 15.175-8.21 23.298-8.245-2.083-16.317-3.803-24.164-5.129-50.832-8.593-87.067.172-102.025 24.68s-6.186 60.74 24.698 102.021c6.302 8.424 13.388 16.881 21.163 25.301-7.775 8.42-14.861 16.877-21.163 25.301-30.884 41.281-39.656 77.512-24.698 102.021 11.212 18.371 34.375 27.896 66.684 27.896 10.794-.001 22.611-1.064 35.342-3.216 7.847-1.327 15.919-3.046 24.164-5.129 2.517 8.123 5.254 15.909 8.21 23.298 19.147 47.868 45.504 74.23 74.217 74.23s55.07-26.362 74.217-74.23c2.956-7.39 5.693-15.176 8.21-23.298 8.245 2.083 16.317 3.803 24.164 5.129 12.733 2.153 24.545 3.216 35.342 3.216 32.305-.001 55.473-9.526 66.684-27.896 14.958-24.509 6.186-60.74-24.697-102.021-6.304-8.425-13.39-16.882-21.164-25.302zm-53.538-136.454c43.406-7.336 74.73-1.016 85.938 17.348 11.207 18.362 2.509 49.11-23.864 84.36-5.814 7.772-12.341 15.581-19.487 23.366-15.299-15.272-32.789-30.305-51.947-44.662-2.569-26.916-6.988-52.457-13.099-75.67 7.666-1.923 15.166-3.509 22.459-4.742zm-64.04 210.479c-14.996 9.153-30.132 17.488-45.179 24.915-15.047-7.428-30.182-15.763-45.178-24.915a581.11 581.11 0 0 1-39.611-26.44c-1.275-15.476-1.934-31.398-1.934-47.585s.659-32.109 1.934-47.585a580.37 580.37 0 0 1 39.611-26.44c14.996-9.152 30.131-17.487 45.178-24.915 15.047 7.428 30.182 15.763 45.179 24.915a580.616 580.616 0 0 1 39.611 26.44c1.275 15.477 1.934 31.399 1.934 47.586s-.659 32.109-1.933 47.585a581.002 581.002 0 0 1-39.612 26.439zm37.488-5.588c-2.552 20.904-6.281 40.766-11.099 59.086-17.287-5.174-35.254-11.923-53.492-20.082a599.836 599.836 0 0 0 35.317-19.957 600.66 600.66 0 0 0 29.274-19.047zm-100.743 39.004c-18.238 8.159-36.205 14.908-53.492 20.082-4.818-18.32-8.547-38.182-11.099-59.087a602.388 602.388 0 0 0 29.274 19.048h-.001a599.362 599.362 0 0 0 35.318 19.957zm-83.406-72.53c-14.357-11.361-27.579-23.071-39.415-34.91 11.836-11.839 25.058-23.549 39.415-34.911a602.506 602.506 0 0 0-1.008 34.911c0 11.785.342 23.444 1.008 34.91zm18.816-103.347c2.552-20.904 6.281-40.767 11.099-59.086 17.287 5.174 35.254 11.923 53.492 20.082a599.243 599.243 0 0 0-35.316 19.957h-.001a600.66 600.66 0 0 0-29.274 19.047zm100.743-39.005c18.237-8.159 36.205-14.908 53.491-20.082 4.818 18.32 8.547 38.182 11.099 59.086a602.342 602.342 0 0 0-29.273-19.047 599.836 599.836 0 0 0-35.317-19.957zm83.405 72.53c14.357 11.361 27.58 23.072 39.416 34.911-11.836 11.839-25.059 23.55-39.416 34.911a602.506 602.506 0 0 0 1.008-34.911 600.728 600.728 0 0 0-1.008-34.911zM184.823 80.086c16.35-40.875 38.065-64.318 59.577-64.318s43.227 23.443 59.577 64.318c2.747 6.868 5.3 14.096 7.653 21.641-21.677 6.481-44.337 15.324-67.23 26.224-22.893-10.9-45.553-19.743-67.23-26.224 2.353-7.545 4.906-14.773 7.653-21.641zM73.107 209.654c-26.373-35.25-35.071-65.998-23.864-84.361 8.148-13.35 26.924-20.336 53.252-20.336 9.884 0 20.837.986 32.686 2.988 7.294 1.233 14.793 2.819 22.46 4.742-6.112 23.213-10.53 48.754-13.1 75.67-19.158 14.357-36.647 29.39-51.946 44.662-7.146-7.784-13.673-15.593-19.488-23.365zm62.074 171.2c-43.407 7.339-74.731 1.016-85.938-17.347-11.207-18.362-2.508-49.111 23.864-84.361 5.814-7.772 12.341-15.581 19.488-23.366 15.299 15.272 32.788 30.304 51.946 44.661 2.569 26.916 6.988 52.458 13.1 75.67-7.667 1.924-15.166 3.51-22.46 4.743zm168.797 27.861c-16.35 40.875-38.065 64.318-59.577 64.318s-43.227-23.443-59.577-64.318c-2.747-6.868-5.3-14.096-7.653-21.641 21.678-6.482 44.337-15.324 67.23-26.224 22.893 10.901 45.553 19.743 67.23 26.224-2.353 7.545-4.906 14.773-7.653 21.641zm135.58-45.207c-11.208 18.362-42.531 24.684-85.938 17.347-7.293-1.233-14.793-2.819-22.459-4.741 6.111-23.212 10.53-48.753 13.099-75.669 19.158-14.357 36.648-29.39 51.947-44.662 7.146 7.785 13.673 15.594 19.487 23.366 26.372 35.248 35.071 65.997 23.864 84.359z"/></svg>