<svg
  xmlns="http://www.w3.org/2000/svg"
  viewBox="0 0 300.158 300.158"
  style="enable-background: new 0 0 300.158 300.158"
  xml:space="preserve"
>
  <path
    style="fill: #f5f5f5"
    d="M296.335 260.774 173.42 202.552v-53.221l13.34-6.96v37.723a6.658 6.658 0 0 0 3.855 6.043l100.05 46.69a6.572 6.572 0 0 0 2.815.627 6.663 6.663 0 0 0 6.043-3.862c1.567-3.335.113-7.31-3.222-8.864L200.1 175.846v-40.434l56.442-29.448a6.665 6.665 0 0 0 2.881-8.898l-33.35-66.7c-1.614-3.228-5.523-4.582-8.791-3.055L3.842 127.361A6.7 6.7 0 0 0 0 133.324a6.669 6.669 0 0 0 3.689 6.05l93.38 46.69c.94.467 1.961.7 2.981.7a6.603 6.603 0 0 0 3.082-.76l56.948-29.712v50.483a6.656 6.656 0 0 0 3.815 6.023l126.73 60.03a6.58 6.58 0 0 0 2.855.647 6.67 6.67 0 0 0 2.855-12.701zM217.049 42.152l3.478 6.956-187.006 90.264-11.549-5.774 195.077-91.446zM99.984 172.604l-51.389-25.695 177.9-85.868 18.068 36.132-144.579 75.431z"
  />
</svg>
