<svg xmlns="http://www.w3.org/2000/svg" viewBox="0 0 240.035 240.035" style="enable-background:new 0 0 240.035 240.035" xml:space="preserve"><path fill="#F5F5F5" d="M234.035 99.261H102.667c-8.117-19.182-27.13-32.676-49.235-32.676C23.97 66.585 0 90.555 0 120.018s23.97 53.432 53.433 53.432c21.369 0 39.84-12.615 48.38-30.785l8.94 9.633a5.986 5.986 0 0 0 8.775 0l10.412-11.218 10.412 11.218a5.986 5.986 0 0 0 8.775 0l10.412-11.218 10.412 11.218a5.986 5.986 0 0 0 8.775 0l10.412-11.218 10.412 11.218a5.986 5.986 0 0 0 8.775 0l10.695-11.523h.692c11.208 0 20.326-9.118 20.326-20.326v-15.187a6.005 6.005 0 0 0-6.003-6.001zM53.433 161.45C30.587 161.45 12 142.863 12 120.018s18.587-41.432 41.433-41.432 41.432 18.586 41.432 41.432-18.587 41.432-41.432 41.432zm174.602-41.002c0 4.591-3.735 8.326-8.326 8.326H106.135c.472-2.851.729-5.774.729-8.756s-.257-5.905-.729-8.756h121.9v9.186z"/><path fill="#F5F5F5" d="M41.718 102.105c-9.877 0-17.912 8.035-17.912 17.912s8.035 17.912 17.912 17.912 17.912-8.035 17.912-17.912-8.035-17.912-17.912-17.912zm0 23.825c-3.26 0-5.912-2.652-5.912-5.912s2.652-5.912 5.912-5.912 5.912 2.652 5.912 5.912-2.652 5.912-5.912 5.912z"/></svg>