<svg
  xmlns="http://www.w3.org/2000/svg"
  x="0px"
  y="0px"
  viewBox="0 0 300.002 300.002"
  style="enable-background: new 0 0 300.002 300.002"
  xml:space="preserve"
>
  <g>
    <g>
      <g>
        <path
          style="fill: #f5f5f5"
          d="M273.045,39.202c-1.256-1.188-2.931-1.825-4.662-1.694c-6.231,0.362-12.225,0.544-17.825,0.544
				c-48.525,0-72.044-13.319-96.25-36.331c-2.413-2.294-6.2-2.294-8.613,0c-24.212,23.006-47.719,36.331-96.256,36.331
				c-5.594,0-11.594-0.181-17.825-0.55c-1.681-0.069-3.4,0.519-4.656,1.694c-1.25,1.194-1.956,2.837-1.956,4.556v128.806
				c0,70.281,56.075,127.444,125,127.444c68.919,0,125-57.162,125-127.444V43.752C275.001,42.027,274.295,40.383,273.045,39.202z
				 M262.501,172.564c0,62.306-51.519,114.944-112.5,114.944s-112.5-52.637-112.5-114.944V50.314
				c57.556,2.25,86.056-11.631,112.5-35.538c26.438,23.913,54.981,37.85,112.5,35.538V172.564z"
        />
        <path
          style="fill: #f5f5f5"
          d="M225.001,168.752h-0.529c-0.957-5.69-3.2-10.946-6.419-15.464l0.379-0.379c2.444-2.444,2.444-6.388,0-8.838
				c-2.444-2.444-6.394-2.444-8.838,0l-0.379,0.379c-4.518-3.22-9.774-5.464-15.465-6.423v-0.524c0-3.456-2.8-6.25-6.25-6.25
				s-6.25,2.794-6.25,6.25v0.524c-5.693,0.959-10.95,3.204-15.469,6.426l-0.381-0.381c-2.444-2.444-6.387-2.444-8.837,0
				c-2.444,2.45-2.444,6.394,0,8.838l0.383,0.383c-3.218,4.517-5.46,9.772-6.417,15.461h-0.529c-3.45,0-6.25,2.794-6.25,6.25
				c0,3.456,2.8,6.25,6.25,6.25h0.533c0.96,5.686,3.202,10.938,6.42,15.453l-0.39,0.39c-2.444,2.444-2.444,6.388,0,8.837
				c1.219,1.213,2.819,1.831,4.419,1.831c1.606,0,3.206-0.606,4.419-1.831l0.39-0.39c4.517,3.22,9.771,5.463,15.46,6.422v0.537
				c0,3.456,2.8,6.25,6.25,6.25s6.25-2.794,6.25-6.25v-0.537c5.687-0.959,10.94-3.201,15.456-6.419l0.387,0.387
				c1.219,1.213,2.819,1.831,4.419,1.831c1.6,0,3.2-0.606,4.419-1.831c2.444-2.45,2.444-6.394,0-8.837l-0.387-0.387
				c3.219-4.516,5.463-9.769,6.423-15.457h0.533c3.45,0,6.25-2.794,6.25-6.25C231.251,171.545,228.451,168.752,225.001,168.752z
				 M187.501,199.995c-13.787,0-25-11.219-25-25.006c0-13.754,11.168-24.947,24.918-24.992c0.028,0,0.054,0.004,0.082,0.004
				s0.054-0.004,0.082-0.004c13.75,0.045,24.918,11.238,24.918,24.992C212.501,188.777,201.288,199.995,187.501,199.995z"
        />
        <path
          style="fill: #f5f5f5"
          d="M125.001,112.502h0.791c0.592,2.291,1.505,4.452,2.681,6.441l-1.641,1.641c-2.444,2.444-2.444,6.394,0,8.837
				c1.219,1.219,2.819,1.831,4.419,1.831s3.2-0.612,4.419-1.831l1.641-1.641c1.988,1.176,4.15,2.09,6.441,2.681v0.791
				c0,3.456,2.8,6.25,6.25,6.25s6.25-2.794,6.25-6.25v-0.791c2.291-0.592,4.452-1.505,6.441-2.681l1.641,1.641
				c1.219,1.219,2.819,1.831,4.419,1.831s3.2-0.612,4.419-1.831c2.444-2.444,2.444-6.394,0-8.837l-1.641-1.641
				c1.176-1.988,2.09-4.15,2.681-6.441h0.791c3.45,0,6.25-2.794,6.25-6.25c0-3.456-2.8-6.25-6.25-6.25h-0.791
				c-0.592-2.291-1.505-4.452-2.681-6.441l1.641-1.641c2.444-2.444,2.444-6.394,0-8.837c-2.444-2.444-6.394-2.444-8.838,0
				l-1.641,1.641c-1.988-1.176-4.15-2.09-6.441-2.681v-0.791c0-3.456-2.8-6.25-6.25-6.25s-6.25,2.794-6.25,6.25v0.791
				c-2.291,0.592-4.452,1.505-6.441,2.681l-1.641-1.641c-2.444-2.444-6.394-2.444-8.838,0c-2.444,2.444-2.444,6.394,0,8.837
				l1.641,1.641c-1.176,1.988-2.09,4.15-2.681,6.441h-0.791c-3.45,0-6.25,2.794-6.25,6.25
				C118.751,109.708,121.551,112.502,125.001,112.502z M141.92,98.17c0.741-0.741,1.254-1.622,1.545-2.556
				c1.904-1.174,4.138-1.863,6.536-1.863c2.398,0,4.631,0.688,6.535,1.861c0.292,0.935,0.805,1.816,1.546,2.558
				c0.74,0.74,1.621,1.253,2.557,1.544c1.173,1.904,1.862,4.138,1.862,6.537c0,2.398-0.688,4.632-1.861,6.535
				c-0.935,0.292-1.816,0.805-2.558,1.546s-1.255,1.623-1.546,2.558c-1.904,1.173-4.137,1.861-6.535,1.861
				c-2.398,0-4.631-0.689-6.536-1.863c-0.292-0.934-0.804-1.815-1.545-2.556c-0.741-0.741-1.622-1.254-2.556-1.545
				c-1.174-1.904-1.863-4.137-1.863-6.536c0-2.399,0.69-4.633,1.864-6.537C140.299,99.422,141.18,98.91,141.92,98.17z"
        />
        <path
          style="fill: #f5f5f5"
          d="M137.501,181.252h-0.789c-0.591-2.292-1.504-4.454-2.681-6.443l1.638-1.638c2.444-2.444,2.444-6.394,0-8.837
				c-2.444-2.444-6.394-2.444-8.838,0l-1.637,1.637c-1.989-1.177-4.152-2.092-6.445-2.683v-0.784c0-3.456-2.8-6.25-6.25-6.25
				s-6.25,2.794-6.25,6.25v0.784c-2.292,0.592-4.455,1.506-6.445,2.683l-1.637-1.637c-2.444-2.444-6.394-2.444-8.838,0
				c-2.444,2.444-2.444,6.394,0,8.837l1.638,1.638c-1.176,1.989-2.09,4.151-2.681,6.443h-0.789c-3.45,0-6.25,2.794-6.25,6.25
				c0,3.456,2.8,6.25,6.25,6.25h0.792c0.592,2.29,1.505,4.451,2.681,6.439l-1.642,1.642c-2.444,2.444-2.444,6.394,0,8.837
				c1.219,1.219,2.819,1.831,4.419,1.831s3.2-0.612,4.419-1.831l1.642-1.642c1.988,1.177,4.149,2.09,6.44,2.682v0.791
				c0,3.456,2.8,6.25,6.25,6.25s6.25-2.794,6.25-6.25v-0.791c2.29-0.592,4.452-1.505,6.44-2.682l1.642,1.642
				c1.219,1.219,2.819,1.831,4.419,1.831s3.2-0.612,4.419-1.831c2.444-2.444,2.444-6.394,0-8.837l-1.642-1.642
				c1.176-1.988,2.089-4.149,2.681-6.439h0.792c3.45,0,6.25-2.794,6.25-6.25C143.751,184.045,140.951,181.252,137.501,181.252z
				 M120.582,195.583c-0.741,0.741-1.254,1.621-1.545,2.555c-1.904,1.174-4.138,1.863-6.536,1.863s-4.632-0.689-6.536-1.863
				c-0.292-0.934-0.804-1.814-1.545-2.555c-0.741-0.741-1.621-1.253-2.555-1.545c-1.174-1.905-1.864-4.141-1.864-6.542
				c0-2.395,0.689-4.627,1.861-6.53c0.936-0.292,1.818-0.805,2.558-1.545c0.743-0.743,1.256-1.625,1.548-2.562
				c1.887-1.164,4.099-1.849,6.472-1.86c0.021,0,0.041,0.003,0.062,0.003s0.041-0.003,0.062-0.003
				c2.373,0.012,4.585,0.697,6.472,1.86c0.291,0.936,0.805,1.819,1.548,2.562c0.74,0.74,1.622,1.253,2.558,1.545
				c1.172,1.903,1.861,4.135,1.861,6.53c0,2.402-0.69,4.637-1.864,6.542C122.203,194.329,121.323,194.842,120.582,195.583z"
        />
      </g>
    </g>
  </g>
</svg>
