<svg
  xmlns="http://www.w3.org/2000/svg"
  viewBox="0 0 300.008 300.008"
  style="enable-background: new 0 0 300.008 300.008"
  xml:space="preserve"
>
  <path
    style="fill: #f5f5f5"
    d="M273.048 39.202c-1.256-1.188-2.894-1.756-4.662-1.694-6.219.363-12.213.544-17.813.544-48.55 0-72.056-13.319-96.263-36.331a6.25 6.25 0 0 0-8.613 0c-24.206 23.006-47.712 36.331-96.269 36.331-5.594 0-11.587-.181-17.812-.544-1.781-.056-3.4.519-4.656 1.694a6.298 6.298 0 0 0-1.956 4.556v128.844c0 66.6 71.869 116.713 123.75 127.275.412.088.831.131 1.25.131s.838-.044 1.25-.137c51.881-10.556 123.75-60.681 123.75-127.269V43.758a6.277 6.277 0 0 0-1.956-4.556zm-10.544 133.4c0 59.419-64.919 104.519-112.5 114.762-47.581-10.231-112.5-55.344-112.5-114.762V50.32c57.513 2.306 86.069-11.631 112.5-35.538 26.438 23.931 54.987 37.844 112.5 35.538v122.282z"
  />
  <path
    style="fill: #f5f5f5"
    d="M225.004 124.983h-51.75l-17.325-51.975a6.244 6.244 0 0 0-5.931-4.275 6.26 6.26 0 0 0-5.931 4.275l-17.325 51.975H74.998a6.25 6.25 0 0 0-5.994 4.481 6.245 6.245 0 0 0 2.6 7.019l41.688 26.95-16.413 46.887c-.888 2.519-.056 5.331 2.056 6.987a6.265 6.265 0 0 0 7.281.294l43.694-28.813 43.75 30.325a6.322 6.322 0 0 0 3.563 1.119c1.331 0 2.65-.419 3.756-1.281a6.235 6.235 0 0 0 2.162-6.994l-16.469-48.756 41.7-26.706a6.24 6.24 0 0 0 2.631-7.019 6.258 6.258 0 0 0-5.999-4.493zm-49.194 30.362a6.234 6.234 0 0 0-2.544 7.256l11.987 35.494-31.688-21.975a6.294 6.294 0 0 0-3.563-1.113 6.342 6.342 0 0 0-3.438 1.019l-31.763 20.95 11.919-34.05a6.26 6.26 0 0 0-2.506-7.319l-28.025-18.1h35.063a6.252 6.252 0 0 0 5.931-4.275l12.819-38.463 12.819 38.463a6.239 6.239 0 0 0 5.931 4.275h34.9l-27.842 17.838z"
  />
</svg>
