<svg
  xmlns="http://www.w3.org/2000/svg"
  viewBox="0 0 300 300"
  style="enable-background: new 0 0 300 300"
  xml:space="preserve"
>
  <path
    style="fill: #f5f5f5"
    d="M150 191.35c28.037 0 50-23.162 49.987-52.737V87.256a6.247 6.247 0 0 0-1.956-4.544c-1.244-1.175-2.925-1.825-4.65-1.694-23.075 1.306-29.8-3.813-39-12.888a6.225 6.225 0 0 0-8.775 0c-9.006 8.9-15.125 13.088-32.188 13.088-2.125 0-4.381-.069-6.813-.2-1.7-.138-3.4.513-4.65 1.694a6.26 6.26 0 0 0-1.956 4.544v51.356C100 168.188 121.963 191.35 150 191.35zm-37.5-97.619h.912c18.9 0 28.319-5.194 36.581-12.538 8.556 7.65 18.119 12.631 37.506 12.538v44.894c0 22.569-16.481 40.237-37.5 40.237s-37.5-17.681-37.5-40.237V93.731z"
  />
  <path
    style="fill: #f5f5f5"
    d="M256.25 0H43.75C26.519 0 12.5 14.019 12.5 31.25v237.5c0 17.231 14.019 31.25 31.25 31.25h212.5c17.231 0 31.25-14.019 31.25-31.25V31.25C287.5 14.019 273.481 0 256.25 0zM275 268.75c0 10.338-8.412 18.75-18.75 18.75H43.75c-10.338 0-18.75-8.412-18.75-18.75V31.25c0-10.338 8.412-18.75 18.75-18.75h212.5c10.338 0 18.75 8.412 18.75 18.75v237.5z"
  />
  <path
    style="fill: #f5f5f5"
    d="M256.25 25H43.75a6.245 6.245 0 0 0-6.25 6.25v200a6.245 6.245 0 0 0 6.25 6.25h212.5a6.245 6.245 0 0 0 6.25-6.25v-200a6.245 6.245 0 0 0-6.25-6.25zM250 225H50V37.5h200V225zM153.225 241.356c-10.337 0-18.75 8.412-18.75 18.75 0 10.337 8.413 18.75 18.75 18.75 10.338 0 18.75-8.413 18.75-18.75s-8.412-18.75-18.75-18.75zm0 25c-3.45 0-6.25-2.8-6.25-6.25s2.8-6.25 6.25-6.25c3.438 0 6.25 2.8 6.25 6.25s-2.794 6.25-6.25 6.25z"
  />
</svg>
